dataset
version=1
nRows=25
nColumns=39
inDegrees=no
endheader
time	sternoclavicular_r2	sternoclavicular_r3	unrotscap_r3	unrotscap_r2	acromioclavicular_r2	acromioclavicular_r3	acromioclavicular_r1	unrothum_r1	unrothum_r3	unrothum_r2	elv_angle	shoulder_elv	shoulder1_r2	shoulder_rot	elbow_flexion	pro_sup	deviation	flexion	cmc_abduction	cmc_flexion	mp_flexion	ip_flexion	mcp2_flexion	mcp2_abduction	pm2_flexion	md2_flexion	mcp3_flexion	mcp3_abduction	pm3_flexion	md3_flexion	mcp4_flexion	mcp4_abduction	pm4_flexion	md4_flexion	mcp5_flexion	mcp5_abduction	pm5_flexion	md5_flexion
2.825000	-0.007604	-0.295379	0.130667	0.040286	0.031119	0.043476	-0.142111	-0.095888	-0.081635	0.113418	0.048571	0.027437	0.146525	0.146525	1.782008	1.304820	0.000000	0.000000	0.000000	0.000000	0.000000	0.000000	0.000000	0.000000	0.000000	0.000000	0.000000	0.000000	0.000000	0.000000	0.000000	0.000000	0.000000	0.000000	0.000000	0.000000	0.000000	0.000000
2.830000	-0.007567	-0.294732	0.130024	0.040612	0.031441	0.043484	-0.141297	-0.095370	-0.081016	0.113746	0.049155	0.027437	0.146525	0.146525	1.773055	1.305057	0.000000	0.000000	0.000000	0.000000	0.000000	0.000000	0.000000	0.000000	0.000000	0.000000	0.000000	0.000000	0.000000	0.000000	0.000000	0.000000	0.000000	0.000000	0.000000	0.000000	0.000000	0.000000
2.835000	-0.007534	-0.294091	0.129381	0.040947	0.031772	0.043493	-0.140486	-0.094841	-0.080406	0.114082	0.049748	0.027437	0.146525	0.146525	1.764130	1.305289	0.000000	0.000000	0.000000	0.000000	0.000000	0.000000	0.000000	0.000000	0.000000	0.000000	0.000000	0.000000	0.000000	0.000000	0.000000	0.000000	0.000000	0.000000	0.000000	0.000000	0.000000	0.000000
2.840000	-0.007505	-0.293455	0.128741	0.041290	0.032112	0.043503	-0.139678	-0.094302	-0.079806	0.114427	0.050346	0.027437	0.146525	0.146525	1.755237	1.305518	0.000000	0.000000	0.000000	0.000000	0.000000	0.000000	0.000000	0.000000	0.000000	0.000000	0.000000	0.000000	0.000000	0.000000	0.000000	0.000000	0.000000	0.000000	0.000000	0.000000	0.000000	0.000000
2.845000	-0.007478	-0.292826	0.128104	0.041641	0.032460	0.043513	-0.138875	-0.093754	-0.079215	0.114779	0.050952	0.027437	0.146525	0.146525	1.746379	1.305741	0.000000	0.000000	0.000000	0.000000	0.000000	0.000000	0.000000	0.000000	0.000000	0.000000	0.000000	0.000000	0.000000	0.000000	0.000000	0.000000	0.000000	0.000000	0.000000	0.000000	0.000000	0.000000
2.850000	-0.007455	-0.292203	0.127470	0.042000	0.032816	0.043524	-0.138077	-0.093197	-0.078635	0.115140	0.051562	0.027437	0.146525	0.146525	1.737560	1.305961	0.000000	0.000000	0.000000	0.000000	0.000000	0.000000	0.000000	0.000000	0.000000	0.000000	0.000000	0.000000	0.000000	0.000000	0.000000	0.000000	0.000000	0.000000	0.000000	0.000000	0.000000	0.000000
2.855000	-0.007435	-0.291588	0.126840	0.042367	0.033179	0.043535	-0.137285	-0.092633	-0.078067	0.115507	0.052178	0.027437	0.146525	0.146525	1.728784	1.306175	0.000000	0.000000	0.000000	0.000000	0.000000	0.000000	0.000000	0.000000	0.000000	0.000000	0.000000	0.000000	0.000000	0.000000	0.000000	0.000000	0.000000	0.000000	0.000000	0.000000	0.000000	0.000000
2.860000	-0.007418	-0.290982	0.126214	0.042741	0.033550	0.043547	-0.136501	-0.092062	-0.077509	0.115882	0.052798	0.027437	0.146525	0.146525	1.720053	1.306385	0.000000	0.000000	0.000000	0.000000	0.000000	0.000000	0.000000	0.000000	0.000000	0.000000	0.000000	0.000000	0.000000	0.000000	0.000000	0.000000	0.000000	0.000000	0.000000	0.000000	0.000000	0.000000
2.865000	-0.007404	-0.290383	0.125594	0.043121	0.033928	0.043558	-0.135725	-0.091486	-0.076964	0.116264	0.053422	0.027437	0.146525	0.146525	1.711372	1.306590	0.000000	0.000000	0.000000	0.000000	0.000000	0.000000	0.000000	0.000000	0.000000	0.000000	0.000000	0.000000	0.000000	0.000000	0.000000	0.000000	0.000000	0.000000	0.000000	0.000000	0.000000	0.000000
2.870000	-0.007393	-0.289794	0.124980	0.043507	0.034313	0.043569	-0.134958	-0.090905	-0.076431	0.116652	0.054049	0.027437	0.146525	0.146525	1.702744	1.306790	0.000000	0.000000	0.000000	0.000000	0.000000	0.000000	0.000000	0.000000	0.000000	0.000000	0.000000	0.000000	0.000000	0.000000	0.000000	0.000000	0.000000	0.000000	0.000000	0.000000	0.000000	0.000000
2.875000	-0.007385	-0.289214	0.124372	0.043900	0.034704	0.043579	-0.134201	-0.090321	-0.075911	0.117047	0.054679	0.027437	0.146525	0.146525	1.694172	1.306985	0.000000	0.000000	0.000000	0.000000	0.000000	0.000000	0.000000	0.000000	0.000000	0.000000	0.000000	0.000000	0.000000	0.000000	0.000000	0.000000	0.000000	0.000000	0.000000	0.000000	0.000000	0.000000
2.880000	-0.007380	-0.288645	0.123772	0.044298	0.035101	0.043589	-0.133456	-0.089733	-0.075405	0.117447	0.055311	0.027437	0.146525	0.146525	1.685659	1.307175	0.000000	0.000000	0.000000	0.000000	0.000000	0.000000	0.000000	0.000000	0.000000	0.000000	0.000000	0.000000	0.000000	0.000000	0.000000	0.000000	0.000000	0.000000	0.000000	0.000000	0.000000	0.000000
2.885000	-0.007377	-0.288086	0.123178	0.044701	0.035503	0.043598	-0.132721	-0.089144	-0.074912	0.117852	0.055944	0.027437	0.146525	0.146525	1.677208	1.307359	0.000000	0.000000	0.000000	0.000000	0.000000	0.000000	0.000000	0.000000	0.000000	0.000000	0.000000	0.000000	0.000000	0.000000	0.000000	0.000000	0.000000	0.000000	0.000000	0.000000	0.000000	0.000000
2.890000	-0.007377	-0.287538	0.122593	0.045109	0.035910	0.043605	-0.131999	-0.088554	-0.074433	0.118263	0.056577	0.027437	0.146525	0.146525	1.668824	1.307538	0.000000	0.000000	0.000000	0.000000	0.000000	0.000000	0.000000	0.000000	0.000000	0.000000	0.000000	0.000000	0.000000	0.000000	0.000000	0.000000	0.000000	0.000000	0.000000	0.000000	0.000000	0.000000
2.895000	-0.007379	-0.287001	0.122017	0.045520	0.036323	0.043612	-0.131290	-0.087963	-0.073968	0.118678	0.057211	0.027437	0.146525	0.146525	1.660509	1.307712	0.000000	0.000000	0.000000	0.000000	0.000000	0.000000	0.000000	0.000000	0.000000	0.000000	0.000000	0.000000	0.000000	0.000000	0.000000	0.000000	0.000000	0.000000	0.000000	0.000000	0.000000	0.000000
2.900000	-0.007383	-0.286476	0.121449	0.045936	0.036739	0.043616	-0.130595	-0.087373	-0.073517	0.119097	0.057845	0.027437	0.146525	0.146525	1.652265	1.307880	0.000000	0.000000	0.000000	0.000000	0.000000	0.000000	0.000000	0.000000	0.000000	0.000000	0.000000	0.000000	0.000000	0.000000	0.000000	0.000000	0.000000	0.000000	0.000000	0.000000	0.000000	0.000000
2.905000	-0.007390	-0.285962	0.120890	0.046354	0.037159	0.043620	-0.129914	-0.086784	-0.073082	0.119521	0.058477	0.027437	0.146525	0.146525	1.644097	1.308042	0.000000	0.000000	0.000000	0.000000	0.000000	0.000000	0.000000	0.000000	0.000000	0.000000	0.000000	0.000000	0.000000	0.000000	0.000000	0.000000	0.000000	0.000000	0.000000	0.000000	0.000000	0.000000
2.910000	-0.007399	-0.285462	0.120342	0.046776	0.037583	0.043621	-0.129248	-0.086198	-0.072661	0.119947	0.059108	0.027437	0.146525	0.146525	1.636007	1.308199	0.000000	0.000000	0.000000	0.000000	0.000000	0.000000	0.000000	0.000000	0.000000	0.000000	0.000000	0.000000	0.000000	0.000000	0.000000	0.000000	0.000000	0.000000	0.000000	0.000000	0.000000	0.000000
2.915000	-0.007409	-0.284973	0.119803	0.047200	0.038009	0.043620	-0.128598	-0.085615	-0.072256	0.120377	0.059736	0.027437	0.146525	0.146525	1.627998	1.308350	0.000000	0.000000	0.000000	0.000000	0.000000	0.000000	0.000000	0.000000	0.000000	0.000000	0.000000	0.000000	0.000000	0.000000	0.000000	0.000000	0.000000	0.000000	0.000000	0.000000	0.000000	0.000000
2.920000	-0.007422	-0.284498	0.119275	0.047625	0.038438	0.043616	-0.127964	-0.085037	-0.071866	0.120809	0.060361	0.027437	0.146525	0.146525	1.620073	1.308495	0.000000	0.000000	0.000000	0.000000	0.000000	0.000000	0.000000	0.000000	0.000000	0.000000	0.000000	0.000000	0.000000	0.000000	0.000000	0.000000	0.000000	0.000000	0.000000	0.000000	0.000000	0.000000
2.925000	-0.007436	-0.284036	0.118757	0.048052	0.038870	0.043610	-0.127346	-0.084463	-0.071492	0.121244	0.060983	0.027437	0.146525	0.146525	1.612235	1.308634	0.000000	0.000000	0.000000	0.000000	0.000000	0.000000	0.000000	0.000000	0.000000	0.000000	0.000000	0.000000	0.000000	0.000000	0.000000	0.000000	0.000000	0.000000	0.000000	0.000000	0.000000	0.000000
2.930000	-0.007451	-0.283587	0.118250	0.048479	0.039302	0.043602	-0.126745	-0.083894	-0.071133	0.121680	0.061601	0.027437	0.146525	0.146525	1.604485	1.308767	0.000000	0.000000	0.000000	0.000000	0.000000	0.000000	0.000000	0.000000	0.000000	0.000000	0.000000	0.000000	0.000000	0.000000	0.000000	0.000000	0.000000	0.000000	0.000000	0.000000	0.000000	0.000000
2.935000	-0.007468	-0.283152	0.117755	0.048907	0.039736	0.043590	-0.126162	-0.083332	-0.070790	0.122118	0.062214	0.027437	0.146525	0.146525	1.596828	1.308895	0.000000	0.000000	0.000000	0.000000	0.000000	0.000000	0.000000	0.000000	0.000000	0.000000	0.000000	0.000000	0.000000	0.000000	0.000000	0.000000	0.000000	0.000000	0.000000	0.000000	0.000000	0.000000
2.940000	-0.007486	-0.282730	0.117270	0.049335	0.040171	0.043575	-0.125596	-0.082777	-0.070463	0.122556	0.062822	0.027437	0.146525	0.146525	1.589265	1.309016	0.000000	0.000000	0.000000	0.000000	0.000000	0.000000	0.000000	0.000000	0.000000	0.000000	0.000000	0.000000	0.000000	0.000000	0.000000	0.000000	0.000000	0.000000	0.000000	0.000000	0.000000	0.000000
2.945000	-0.007505	-0.282322	0.116798	0.049762	0.040605	0.043557	-0.125049	-0.082229	-0.070153	0.122995	0.063425	0.027437	0.146525	0.146525	1.581798	1.309131	0.000000	0.000000	0.000000	0.000000	0.000000	0.000000	0.000000	0.000000	0.000000	0.000000	0.000000	0.000000	0.000000	0.000000	0.000000	0.000000	0.000000	0.000000	0.000000	0.000000	0.000000	0.000000
